<?xml version="1.0" standalone="no"?>
<!DOCTYPE svg PUBLIC "-//W3C//DTD SVG 20010904//EN"
 "http://www.w3.org/TR/2001/REC-SVG-20010904/DTD/svg10.dtd">
<svg version="1.0" xmlns="http://www.w3.org/2000/svg"
 width="276.000000pt" height="282.000000pt" viewBox="0 0 276.000000 282.000000"
 preserveAspectRatio="xMidYMid meet">

<g transform="translate(0.000000,282.000000) scale(0.100000,-0.100000)"
fill="#000000" stroke="none">
<path d="M1302 2782 c-35 -33 -54 -91 -46 -143 7 -45 -6 -56 -41 -33 -36 23
-102 22 -127 -3 -27 -27 -39 -87 -28 -142 8 -43 7 -48 -19 -74 l-28 -28 -108
121 c-97 109 -111 121 -138 118 -36 -4 -72 -47 -63 -74 3 -11 67 -59 141 -108
74 -49 135 -90 135 -91 0 -5 -371 -320 -380 -323 -5 -2 -14 15 -21 38 -19 61
-77 123 -117 123 -42 0 -71 -27 -78 -75 l-7 -39 -17 29 c-47 76 -119 94 -172
42 -27 -27 -30 -36 -25 -71 6 -44 26 -72 70 -99 l28 -17 -39 -7 c-47 -7 -75
-36 -75 -76 0 -37 32 -74 91 -104 l44 -22 -128 -110 c-70 -60 -132 -112 -137
-116 -12 -7 13 -43 90 -126 l48 -54 83 72 82 71 -2 -432 -3 -433 -41 -12
c-205 -59 -262 -241 -82 -263 l53 -6 -48 -28 c-61 -36 -87 -77 -87 -140 0 -42
5 -54 34 -83 29 -29 41 -34 82 -34 31 0 60 7 77 19 30 19 77 82 77 102 0 26
13 -2 21 -47 12 -65 41 -94 94 -94 68 0 121 53 161 164 l21 60 707 0 706 1 16
-50 c22 -68 67 -136 102 -158 70 -41 145 -7 157 72 11 68 11 67 20 46 15 -37
56 -85 85 -100 38 -20 104 -19 136 1 56 37 70 117 31 175 -20 30 -35 43 -103
86 -16 10 -13 12 24 12 139 2 165 136 43 216 -22 15 -66 35 -98 45 l-58 18 -3
433 c-2 412 -1 432 15 418 10 -9 48 -41 84 -72 36 -31 68 -57 71 -57 2 0 37
38 76 84 l71 84 -134 113 c-73 63 -134 117 -134 120 -1 4 13 12 31 20 47 19
98 75 98 107 0 42 -21 63 -76 77 -27 8 -41 14 -32 14 10 1 33 17 53 36 29 30
35 43 35 78 0 48 -24 83 -65 93 -50 12 -93 -12 -137 -76 l-17 -25 -1 35 c0 19
-6 42 -13 51 -53 69 -143 24 -179 -89 -7 -23 -16 -42 -20 -42 -8 0 -363 304
-372 319 -4 6 54 51 129 101 145 97 157 113 115 158 -44 47 -68 29 -281 -212
-5 -6 -19 0 -34 14 -23 22 -24 27 -18 94 4 56 2 79 -11 103 -24 48 -85 60
-145 28 -18 -9 -35 -14 -40 -11 -4 3 -6 28 -3 56 9 95 -43 160 -128 160 -39 0
-54 -5 -78 -28z m5 -544 c33 -32 33 -33 33 -125 l0 -93 -70 0 c-38 0 -70 -1
-70 -3 0 -2 -65 -224 -76 -259 -5 -16 3 -18 77 -18 76 0 84 -2 116 -30 20 -18
45 -30 61 -30 30 0 92 34 92 50 0 6 34 10 85 10 61 0 85 3 85 13 0 6 -17 68
-38 137 l-38 125 -67 3 -67 3 0 92 c0 92 0 93 33 125 l33 32 362 -307 361
-308 0 -504 1 -504 -57 -93 -57 -94 -725 2 -724 3 -53 85 -53 85 -1 511 0 510
358 307 c196 168 359 306 362 306 2 1 19 -13 37 -31z"/>
<path d="M1180 1085 l0 -245 36 0 36 0 -3 83 -4 82 139 3 139 3 -6 -86 -6 -85
39 0 40 0 0 245 c0 233 -1 245 -19 245 -19 0 -31 -34 -31 -87 l0 -24 -157 3
-158 3 -3 53 c-3 44 -6 52 -23 52 -18 0 -19 -9 -19 -245z"/>
<path d="M1140 650 l0 -150 39 0 39 0 7 70 7 70 149 0 148 0 6 -35 c17 -114
13 -105 50 -105 l35 0 0 150 0 150 -240 0 -240 0 0 -150z"/>
</g>
</svg>
